<svg id="svg" version="1.1" xmlns="http://www.w3.org/2000/svg" xmlns:xlink="http://www.w3.org/1999/xlink" width="400" height="400" viewBox="0, 0, 400,400"><g id="svgg"><path id="path0" d="M179.600 128.224 C 179.600 128.567,179.442 128.749,179.248 128.630 C 179.055 128.510,178.885 129.670,178.870 131.206 C 178.856 132.743,179.001 134.000,179.193 134.000 C 179.790 134.000,180.154 138.332,179.612 138.986 C 179.348 139.304,179.250 139.757,179.395 139.992 C 179.541 140.227,179.511 140.394,179.330 140.363 C 178.488 140.216,178.000 140.451,178.000 141.000 C 178.000 141.330,178.180 141.600,178.400 141.600 C 179.117 141.600,178.821 142.339,178.000 142.600 C 177.560 142.740,177.200 143.202,177.200 143.627 C 177.200 144.052,177.065 144.401,176.900 144.403 C 176.486 144.407,175.600 146.394,175.600 147.317 C 175.600 147.738,175.245 148.168,174.800 148.284 C 174.272 148.422,174.000 148.830,174.000 149.484 C 174.000 150.122,173.729 150.546,173.237 150.674 C 172.557 150.852,171.841 152.096,171.957 152.900 C 171.981 153.065,171.807 153.200,171.571 153.200 C 171.012 153.200,170.000 154.220,170.000 154.784 C 170.000 155.027,169.685 155.346,169.301 155.493 C 168.403 155.838,167.038 157.203,166.693 158.101 C 166.546 158.485,166.104 158.800,165.713 158.801 C 165.321 158.801,164.370 159.341,163.600 160.000 C 162.830 160.659,161.954 161.199,161.653 161.199 C 161.304 161.200,161.182 161.488,161.316 162.000 C 161.431 162.440,161.362 162.800,161.163 162.800 C 160.963 162.800,160.800 162.620,160.800 162.400 C 160.800 161.657,159.695 161.993,159.484 162.800 C 159.369 163.240,159.033 163.597,158.737 163.594 C 158.329 163.589,158.344 163.494,158.800 163.200 C 159.331 162.857,159.329 162.812,158.788 162.806 C 158.452 162.803,157.917 163.160,157.600 163.600 C 157.198 164.157,156.565 164.400,155.512 164.400 C 154.680 164.400,154.000 164.580,154.000 164.800 C 154.000 165.020,153.475 165.200,152.833 165.200 C 152.192 165.200,151.605 165.386,151.529 165.614 C 151.453 165.842,150.358 166.040,149.095 166.055 C 147.833 166.070,146.800 166.244,146.800 166.441 C 146.800 166.639,145.576 166.800,144.080 166.800 C 142.453 166.800,141.147 167.001,140.830 167.300 C 140.406 167.700,140.263 167.700,140.117 167.300 C 139.846 166.563,136.400 166.630,136.400 167.373 C 136.400 167.688,136.040 168.060,135.600 168.200 C 135.160 168.340,134.800 168.802,134.800 169.227 C 134.800 169.652,134.620 170.000,134.400 170.000 C 134.180 170.000,134.000 170.540,134.000 171.200 C 134.000 171.860,133.801 172.400,133.557 172.400 C 133.314 172.400,133.221 172.677,133.350 173.015 C 133.485 173.365,133.331 173.728,132.993 173.858 C 132.658 173.987,132.400 174.589,132.400 175.243 C 132.400 175.879,132.201 176.400,131.957 176.400 C 131.714 176.400,131.621 176.677,131.750 177.015 C 131.881 177.354,131.738 177.725,131.433 177.843 C 131.102 177.970,130.880 178.640,130.880 179.511 C 130.880 180.508,130.615 181.182,130.040 181.648 C 129.578 182.022,129.200 182.794,129.200 183.364 C 129.200 183.934,129.020 184.400,128.800 184.400 C 128.580 184.400,128.400 184.760,128.400 185.200 C 128.400 185.640,128.220 186.000,128.000 186.000 C 127.780 186.000,127.600 186.540,127.600 187.200 C 127.600 187.860,127.420 188.400,127.200 188.400 C 126.980 188.400,126.800 188.771,126.800 189.224 C 126.800 189.744,126.970 189.942,127.262 189.762 C 127.541 189.589,127.615 189.652,127.449 189.921 C 127.298 190.165,126.920 190.267,126.609 190.148 C 126.174 189.981,126.016 190.423,125.922 192.066 C 125.821 193.840,125.682 194.180,125.100 194.082 C 124.228 193.936,124.164 195.024,125.025 195.354 C 125.369 195.486,125.533 195.784,125.390 196.017 C 125.210 196.308,124.955 196.295,124.569 195.974 C 124.131 195.611,123.952 195.659,123.746 196.195 C 123.598 196.582,123.706 197.018,123.995 197.197 C 124.366 197.426,124.272 197.587,123.653 197.783 C 123.184 197.932,122.800 198.232,122.800 198.451 C 122.800 198.669,122.980 198.736,123.200 198.600 C 123.420 198.464,123.600 198.590,123.600 198.880 C 123.600 199.170,123.240 199.632,122.800 199.907 C 122.360 200.182,122.000 200.765,122.000 201.203 C 122.000 201.642,121.820 202.000,121.600 202.000 C 121.024 202.000,121.106 203.096,121.700 203.335 C 121.975 203.446,121.774 203.551,121.253 203.568 C 120.507 203.593,120.351 203.771,120.518 204.407 C 120.634 204.851,120.475 205.468,120.164 205.778 C 119.854 206.089,119.600 206.615,119.600 206.948 C 119.600 207.281,119.420 207.664,119.200 207.800 C 118.980 207.936,118.800 208.227,118.800 208.447 C 118.800 208.667,118.980 208.736,119.200 208.600 C 119.420 208.464,119.600 208.621,119.600 208.949 C 119.600 209.278,119.240 209.660,118.800 209.800 C 118.360 209.940,118.000 210.387,118.000 210.794 C 118.000 211.200,117.775 211.638,117.500 211.767 C 117.100 211.953,117.100 212.047,117.500 212.233 C 118.445 212.674,118.113 214.355,117.133 214.098 C 116.449 213.920,116.318 214.010,116.516 214.525 C 116.669 214.923,116.499 215.337,116.083 215.582 C 115.486 215.935,115.475 216.036,116.000 216.387 C 116.403 216.656,116.436 216.790,116.100 216.794 C 115.825 216.797,115.600 217.070,115.600 217.400 C 115.600 217.730,115.420 218.000,115.200 218.000 C 114.980 218.000,114.800 218.345,114.800 218.767 C 114.800 219.188,114.575 219.616,114.300 219.717 C 113.900 219.863,113.900 220.006,114.300 220.430 C 114.792 220.952,115.035 221.968,114.552 221.486 C 113.985 220.919,113.101 222.399,113.628 223.034 C 113.907 223.370,113.970 223.614,113.768 223.575 C 112.730 223.378,112.320 223.651,112.518 224.407 C 112.634 224.851,112.463 225.480,112.139 225.804 C 111.814 226.128,111.654 226.564,111.783 226.772 C 111.912 226.981,111.715 227.320,111.347 227.526 C 110.958 227.743,110.776 228.162,110.914 228.521 C 111.045 228.862,110.893 229.357,110.576 229.620 C 110.259 229.883,110.000 230.490,110.000 230.969 C 110.000 231.984,109.138 233.992,108.700 233.997 C 108.535 233.999,108.400 234.360,108.400 234.800 C 108.400 235.240,108.220 235.600,108.000 235.600 C 107.780 235.600,107.600 236.140,107.600 236.800 C 107.600 237.460,107.420 238.000,107.200 238.000 C 106.980 238.000,106.800 238.360,106.800 238.800 C 106.800 239.240,106.599 239.600,106.353 239.600 C 106.102 239.600,105.999 239.953,106.118 240.407 C 106.234 240.851,106.075 241.468,105.764 241.778 C 105.454 242.089,105.200 242.626,105.200 242.971 C 105.200 243.317,105.020 243.600,104.800 243.600 C 104.580 243.600,104.400 243.870,104.400 244.200 C 104.400 244.530,104.700 244.800,105.067 244.800 C 105.433 244.800,105.601 244.933,105.438 245.095 C 105.276 245.257,104.841 245.392,104.472 245.395 C 104.038 245.398,103.755 245.790,103.673 246.500 C 103.604 247.105,103.379 247.600,103.173 247.600 C 102.968 247.600,102.800 247.949,102.800 248.376 C 102.800 248.803,102.620 249.264,102.400 249.400 C 102.180 249.536,102.000 250.087,102.000 250.624 C 102.000 251.161,101.820 251.600,101.600 251.600 C 101.380 251.600,101.200 251.960,101.200 252.400 C 101.200 252.840,101.020 253.200,100.800 253.200 C 100.580 253.200,100.400 253.743,100.400 254.408 L 100.400 255.616 116.800 255.591 C 132.809 255.567,133.200 255.548,133.200 254.783 C 133.200 254.353,133.380 254.000,133.600 254.000 C 133.820 254.000,134.000 253.730,134.000 253.400 C 134.000 253.070,133.850 252.800,133.667 252.800 C 133.483 252.800,133.333 252.540,133.333 252.222 C 133.333 251.904,133.438 251.656,133.567 251.670 C 134.408 251.760,134.700 251.473,134.700 250.555 C 134.700 249.979,134.926 249.370,135.201 249.199 C 135.477 249.029,135.591 248.710,135.456 248.490 C 135.320 248.270,135.477 247.868,135.804 247.596 C 136.132 247.324,136.400 246.674,136.400 246.151 C 136.400 245.628,136.580 245.200,136.800 245.200 C 137.020 245.200,137.200 244.660,137.200 244.000 C 137.200 243.340,137.380 242.800,137.600 242.800 C 137.820 242.800,138.000 242.451,138.000 242.024 C 138.000 241.597,138.180 241.136,138.400 241.000 C 138.620 240.864,138.800 240.313,138.800 239.776 C 138.800 239.239,138.980 238.800,139.200 238.800 C 139.420 238.800,139.600 238.275,139.600 237.633 C 139.600 236.992,139.825 236.384,140.100 236.283 C 140.492 236.139,140.496 235.989,140.114 235.584 C 139.730 235.176,139.800 234.920,140.451 234.356 C 140.903 233.963,141.156 233.452,141.011 233.218 C 140.867 232.985,141.031 232.686,141.375 232.554 C 141.719 232.422,142.000 232.143,142.000 231.934 C 142.000 231.724,141.820 231.664,141.600 231.800 C 141.380 231.936,141.200 231.810,141.200 231.520 C 141.200 230.923,142.756 229.823,143.106 230.172 C 143.231 230.298,143.093 230.400,142.800 230.400 C 142.507 230.400,142.382 230.516,142.524 230.657 C 142.665 230.798,143.039 230.700,143.355 230.438 C 143.746 230.113,144.011 230.095,144.188 230.381 C 144.341 230.628,145.788 230.770,147.724 230.725 L 151.000 230.651 147.800 230.385 C 144.699 230.128,144.743 230.120,149.200 230.121 C 151.730 230.121,159.547 230.090,166.571 230.051 C 175.173 230.004,179.426 230.119,179.602 230.403 C 179.965 230.991,180.073 241.776,179.763 246.548 C 179.602 249.024,179.377 250.292,179.160 249.948 C 178.946 249.611,178.810 250.591,178.806 252.500 L 178.800 255.600 204.800 255.600 L 230.800 255.600 230.800 254.587 C 230.800 254.031,230.550 253.479,230.244 253.362 C 229.923 253.238,229.774 252.822,229.891 252.374 C 230.002 251.948,229.892 251.600,229.647 251.600 C 229.401 251.600,229.200 251.240,229.200 250.800 C 229.200 250.360,229.020 250.000,228.800 250.000 C 228.580 250.000,228.400 249.460,228.400 248.800 C 228.400 248.140,228.220 247.600,228.000 247.600 C 227.780 247.600,227.600 247.240,227.600 246.800 C 227.600 246.360,227.465 245.999,227.300 245.997 C 226.853 245.992,226.000 243.974,226.000 242.920 C 226.000 242.414,225.854 242.000,225.675 242.000 C 225.263 242.000,224.163 239.225,224.311 238.559 C 224.371 238.285,224.236 237.946,224.011 237.807 C 223.785 237.667,223.600 237.113,223.600 236.576 C 223.600 236.039,223.420 235.600,223.200 235.600 C 222.980 235.600,222.800 235.240,222.800 234.800 C 222.800 234.360,222.620 234.000,222.400 234.000 C 222.180 234.000,222.000 233.479,222.000 232.843 C 222.000 232.162,221.742 231.587,221.375 231.446 C 221.031 231.314,220.867 231.015,221.011 230.782 C 221.156 230.548,220.869 230.007,220.376 229.579 C 219.882 229.150,219.685 228.800,219.939 228.800 C 220.192 228.800,220.400 228.530,220.400 228.200 C 220.400 227.870,220.220 227.600,220.000 227.600 C 219.780 227.600,219.600 227.240,219.600 226.800 C 219.600 226.360,219.420 226.000,219.200 226.000 C 218.980 226.000,218.800 225.460,218.800 224.800 C 218.800 224.140,218.620 223.600,218.400 223.600 C 218.180 223.600,218.000 223.240,218.000 222.800 C 218.000 222.360,217.863 222.000,217.696 222.000 C 217.529 222.000,217.156 221.621,216.867 221.158 C 216.578 220.695,216.534 220.436,216.770 220.582 C 217.007 220.728,217.200 220.567,217.200 220.224 C 217.200 219.881,216.947 219.600,216.637 219.600 C 216.272 219.600,216.148 219.320,216.284 218.800 C 216.434 218.228,216.296 218.000,215.803 218.000 C 215.264 218.000,215.169 217.778,215.368 216.983 C 215.656 215.837,214.886 214.800,213.749 214.800 C 213.197 214.800,213.147 214.693,213.520 214.320 C 214.399 213.441,214.118 211.604,213.100 211.568 C 212.605 211.551,212.425 211.446,212.700 211.335 C 213.390 211.057,213.328 210.135,212.600 209.855 C 211.751 209.530,211.856 208.905,212.848 208.374 C 213.427 208.064,213.611 208.058,213.429 208.354 C 213.123 208.848,215.707 211.597,216.487 211.606 C 217.607 211.619,218.183 212.298,217.635 212.958 C 217.061 213.649,218.035 215.073,218.769 214.619 C 218.976 214.491,219.275 214.598,219.434 214.855 C 219.615 215.148,219.550 215.216,219.262 215.038 C 218.493 214.563,218.743 215.181,219.700 216.118 C 220.195 216.603,221.320 217.360,222.200 217.800 C 223.080 218.240,223.863 218.633,223.940 218.673 C 224.017 218.714,223.954 218.950,223.800 219.199 C 223.605 219.516,223.292 219.445,222.760 218.964 C 222.342 218.586,222.000 218.460,222.000 218.684 C 222.000 219.362,226.308 223.626,226.874 223.509 C 227.190 223.443,227.452 223.857,227.531 224.544 C 227.661 225.684,229.971 228.400,230.810 228.400 C 231.051 228.400,231.146 228.563,231.023 228.763 C 230.900 228.962,231.132 229.038,231.540 228.932 C 232.256 228.744,233.600 229.701,233.600 230.399 C 233.600 230.587,233.299 230.800,232.931 230.871 C 232.442 230.965,233.015 231.761,235.063 233.834 C 236.603 235.393,237.979 236.969,238.121 237.338 C 238.262 237.706,238.597 237.961,238.865 237.904 C 239.133 237.847,239.428 238.147,239.519 238.572 C 239.882 240.249,241.213 240.844,242.261 239.796 C 242.593 239.464,243.058 239.312,243.294 239.458 C 243.549 239.615,243.607 239.536,243.438 239.262 C 243.142 238.782,243.565 238.660,245.100 238.784 C 245.595 238.824,246.000 238.664,246.000 238.429 C 246.000 238.193,246.540 238.000,247.200 238.000 C 247.860 238.000,248.400 237.820,248.400 237.600 C 248.400 237.380,249.084 237.200,249.920 237.200 C 250.756 237.200,251.656 236.984,251.920 236.720 C 252.254 236.386,252.400 236.376,252.400 236.687 C 252.400 236.950,253.146 237.133,254.219 237.133 C 255.219 237.133,256.254 237.309,256.519 237.523 C 256.783 237.737,257.532 237.909,258.183 237.906 C 258.834 237.903,259.434 238.103,259.517 238.350 C 259.599 238.597,260.012 238.800,260.433 238.800 C 260.855 238.800,261.200 238.980,261.200 239.200 C 261.200 239.420,261.560 239.600,262.000 239.600 C 262.440 239.600,262.800 239.780,262.800 240.000 C 262.800 240.220,263.256 240.400,263.813 240.400 C 264.369 240.400,264.934 240.683,265.066 241.029 C 265.199 241.375,266.544 242.891,268.054 244.399 C 269.564 245.906,270.800 247.423,270.800 247.770 C 270.800 248.116,270.980 248.400,271.200 248.400 C 271.420 248.400,271.600 248.760,271.600 249.200 C 271.600 249.640,271.774 250.000,271.986 250.000 C 272.198 250.000,272.576 250.382,272.826 250.848 C 273.145 251.444,273.149 251.616,272.840 251.425 C 272.592 251.271,272.400 251.425,272.400 251.776 C 272.400 252.119,272.580 252.400,272.800 252.400 C 273.020 252.400,273.200 252.904,273.200 253.520 C 273.200 255.573,273.353 255.600,284.880 255.600 C 296.223 255.600,296.760 255.503,295.029 253.771 C 294.714 253.457,294.174 253.200,293.829 253.200 C 293.483 253.200,293.200 252.917,293.200 252.571 C 293.200 251.843,292.501 251.069,291.500 250.690 C 291.115 250.544,290.800 250.189,290.800 249.901 C 290.800 249.613,290.440 249.117,290.000 248.800 C 289.560 248.483,289.200 247.987,289.200 247.698 C 289.200 247.069,286.865 244.664,285.891 244.290 C 285.511 244.144,285.200 243.789,285.200 243.501 C 285.200 243.213,284.840 242.717,284.400 242.400 C 283.960 242.083,283.600 241.622,283.600 241.375 C 283.600 240.779,280.389 237.421,279.500 237.088 C 279.115 236.943,278.800 236.549,278.800 236.213 C 278.800 235.867,278.452 235.600,278.000 235.600 C 277.411 235.600,277.200 235.333,277.200 234.591 C 277.200 233.557,273.690 229.627,272.284 229.087 C 271.908 228.943,271.600 228.472,271.600 228.040 C 271.600 227.594,270.216 225.858,268.400 224.024 C 266.640 222.248,265.200 220.640,265.200 220.451 C 265.200 219.976,260.957 215.600,260.497 215.600 C 259.905 215.600,258.800 214.203,258.800 213.455 C 258.800 212.702,256.577 210.307,255.491 209.890 C 255.111 209.744,254.800 209.349,254.800 209.013 C 254.800 208.667,254.452 208.400,254.000 208.400 C 253.428 208.400,253.200 208.133,253.200 207.464 C 253.200 206.276,250.313 203.237,248.300 202.306 C 247.475 201.925,246.800 201.430,246.800 201.206 C 246.800 200.983,246.515 200.800,246.167 200.800 C 245.818 200.800,245.605 200.586,245.692 200.325 C 245.988 199.436,246.598 199.600,247.389 200.779 C 247.822 201.427,248.240 201.893,248.317 201.816 C 248.663 201.471,246.526 198.809,245.900 198.805 C 245.515 198.802,245.200 198.609,245.200 198.376 C 245.200 198.143,245.020 198.064,244.800 198.200 C 244.580 198.336,244.400 198.064,244.400 197.595 C 244.400 196.680,243.540 195.600,242.810 195.600 C 242.565 195.600,241.914 195.150,241.364 194.600 C 240.814 194.050,240.552 193.600,240.782 193.600 C 241.012 193.600,241.200 193.449,241.200 193.264 C 241.200 192.714,237.722 189.200,237.178 189.200 C 236.834 189.200,236.884 188.970,237.338 188.469 C 237.702 188.066,238.000 187.617,238.000 187.471 C 238.000 187.324,238.900 186.285,240.000 185.161 C 241.100 184.038,242.000 182.946,242.000 182.734 C 242.000 182.522,242.911 181.461,244.025 180.376 C 245.226 179.206,245.933 178.215,245.763 177.940 C 245.592 177.663,245.651 177.584,245.911 177.745 C 246.149 177.892,246.458 177.830,246.596 177.607 C 246.734 177.383,246.567 177.200,246.224 177.200 C 245.881 177.200,245.600 177.020,245.600 176.800 C 245.600 176.426,246.178 176.234,246.921 176.360 C 247.434 176.447,248.400 175.316,248.400 174.629 C 248.400 174.267,248.739 174.000,249.200 174.000 C 249.640 174.000,250.000 173.757,250.000 173.459 C 250.000 173.162,250.507 172.388,251.126 171.740 C 251.746 171.092,252.370 170.255,252.514 169.881 C 252.657 169.506,252.985 169.200,253.241 169.200 C 253.745 169.200,255.599 167.211,255.600 166.669 C 255.600 166.486,256.332 165.634,257.227 164.774 C 258.190 163.849,258.736 163.020,258.565 162.744 C 258.392 162.463,258.450 162.383,258.711 162.545 C 258.949 162.692,259.258 162.630,259.396 162.407 C 259.534 162.183,259.457 162.000,259.224 162.000 C 258.432 162.000,258.796 161.337,259.900 160.768 C 261.282 160.054,262.963 158.429,262.646 158.113 C 262.239 157.706,263.225 156.835,263.829 157.067 C 264.143 157.187,264.400 157.086,264.400 156.843 C 264.400 156.599,264.130 156.400,263.800 156.400 C 263.470 156.400,263.200 156.260,263.200 156.089 C 263.200 155.520,264.645 154.530,265.329 154.631 C 265.700 154.685,265.902 154.566,265.778 154.365 C 265.654 154.164,265.756 154.000,266.005 154.000 C 266.686 154.000,267.686 152.862,267.405 152.408 C 267.262 152.177,267.421 152.110,267.779 152.247 C 268.205 152.411,268.400 152.249,268.400 151.731 C 268.400 151.316,268.760 150.717,269.200 150.400 C 269.640 150.083,270.000 149.419,270.000 148.924 C 270.000 148.296,270.178 148.093,270.590 148.251 C 271.516 148.607,272.599 147.322,271.991 146.589 C 271.649 146.177,271.637 146.000,271.951 146.000 C 272.198 146.000,272.400 146.191,272.400 146.424 C 272.400 146.657,272.583 146.734,272.807 146.596 C 273.030 146.458,273.092 146.149,272.945 145.911 C 272.784 145.650,272.863 145.592,273.141 145.764 C 273.410 145.930,273.722 145.745,273.881 145.325 C 274.032 144.926,274.840 143.939,275.678 143.131 C 276.515 142.324,277.200 141.454,277.200 141.200 C 277.200 140.946,277.932 140.034,278.827 139.174 C 279.790 138.249,280.336 137.420,280.165 137.144 C 279.984 136.851,280.050 136.784,280.341 136.964 C 280.849 137.277,282.000 136.332,282.000 135.603 C 282.000 135.353,282.922 134.250,284.048 133.153 C 285.986 131.266,286.056 131.128,285.348 130.587 C 284.703 130.094,284.682 129.962,285.195 129.626 C 286.260 128.928,284.272 127.432,283.156 128.092 C 282.470 128.497,282.259 128.499,282.114 128.100 C 281.899 127.506,278.800 127.413,278.800 128.000 C 278.800 128.237,277.333 128.400,275.200 128.400 C 273.067 128.400,271.600 128.237,271.600 128.000 C 271.600 127.751,269.333 127.600,265.600 127.600 C 261.867 127.600,259.600 127.751,259.600 128.000 C 259.600 128.229,258.400 128.400,256.800 128.400 C 254.830 128.400,253.998 128.252,253.994 127.900 C 253.990 127.561,253.851 127.593,253.563 128.000 C 253.244 128.452,253.089 128.476,252.936 128.100 C 252.294 126.518,249.330 128.604,249.374 130.608 C 249.395 131.586,249.242 131.795,248.520 131.770 C 248.036 131.754,247.731 131.889,247.843 132.070 C 247.956 132.252,247.848 132.400,247.605 132.400 C 247.013 132.400,245.164 134.276,245.295 134.743 C 245.353 134.946,245.028 135.448,244.572 135.856 C 244.117 136.265,243.628 136.915,243.485 137.300 C 243.342 137.685,242.930 138.000,242.570 138.000 C 242.145 138.000,241.997 138.216,242.150 138.613 C 242.306 139.020,242.052 139.352,241.392 139.603 C 240.847 139.810,240.400 140.175,240.400 140.414 C 240.400 140.652,240.603 140.722,240.852 140.568 C 241.128 140.398,241.228 140.505,241.109 140.844 C 241.002 141.150,240.620 141.375,240.261 141.345 C 239.902 141.315,239.707 141.450,239.828 141.645 C 239.949 141.840,239.848 142.000,239.605 142.000 C 238.945 142.000,237.200 143.873,237.200 144.582 C 237.200 144.922,237.020 145.200,236.800 145.200 C 236.580 145.200,236.400 145.476,236.400 145.813 C 236.400 146.149,236.085 146.544,235.700 146.690 C 234.757 147.047,233.847 147.981,234.149 148.282 C 234.559 148.693,233.579 149.567,232.971 149.333 C 232.657 149.213,232.400 149.314,232.400 149.557 C 232.400 149.801,232.681 150.000,233.024 150.000 C 233.367 150.000,233.533 150.185,233.393 150.411 C 233.254 150.636,232.838 150.771,232.470 150.711 C 232.007 150.634,231.840 150.834,231.930 151.354 C 232.024 151.899,231.886 152.042,231.435 151.869 C 231.091 151.737,230.852 151.819,230.905 152.052 C 230.957 152.284,230.648 152.683,230.217 152.937 C 228.493 153.956,227.942 154.800,229.000 154.800 C 230.133 154.800,229.600 155.937,228.336 156.214 C 227.641 156.367,226.651 156.913,226.136 157.428 C 225.147 158.417,224.886 159.042,225.662 158.562 C 225.941 158.389,226.015 158.452,225.849 158.721 C 225.698 158.965,225.310 159.064,224.987 158.940 C 224.664 158.816,224.400 158.914,224.400 159.157 C 224.400 159.401,224.625 159.611,224.900 159.625 C 225.175 159.639,224.995 159.813,224.500 160.012 C 224.005 160.211,223.600 160.663,223.600 161.016 C 223.600 161.852,222.636 162.800,221.786 162.800 C 221.364 162.800,221.197 163.015,221.337 163.380 C 221.485 163.767,221.367 163.885,220.980 163.737 C 220.586 163.586,220.400 163.786,220.400 164.357 C 220.400 164.821,220.264 165.200,220.098 165.200 C 219.931 165.200,219.556 165.740,219.264 166.400 C 218.972 167.060,218.465 167.600,218.138 167.600 C 217.432 167.600,216.821 168.171,215.780 169.800 C 215.105 170.857,215.098 170.934,215.717 170.443 C 216.606 169.738,216.950 170.042,216.288 170.947 C 216.011 171.326,215.395 171.665,214.920 171.701 C 214.444 171.737,214.144 171.909,214.251 172.083 C 214.359 172.257,214.244 172.400,213.995 172.400 C 213.314 172.400,212.314 173.538,212.595 173.992 C 212.738 174.223,212.579 174.290,212.221 174.153 C 211.809 173.995,211.600 174.144,211.600 174.597 C 211.600 174.972,211.060 175.783,210.400 176.400 C 209.681 177.071,209.200 177.925,209.200 178.528 C 209.200 179.788,208.825 180.800,208.357 180.800 C 207.819 180.800,207.928 176.232,208.480 175.680 C 208.744 175.416,208.783 175.200,208.567 175.200 C 207.976 175.200,207.920 171.505,208.505 171.090 C 208.898 170.812,208.897 170.697,208.501 170.536 C 208.219 170.422,208.089 169.956,208.203 169.467 C 208.314 168.990,208.496 164.370,208.607 159.200 C 208.718 154.030,208.899 145.582,209.008 140.426 C 209.163 133.150,209.095 130.980,208.704 130.732 C 208.304 130.478,208.303 130.411,208.700 130.406 C 209.004 130.402,209.200 129.850,209.200 129.000 L 209.200 127.600 204.400 127.600 C 201.467 127.600,199.600 127.756,199.600 128.000 C 199.600 128.237,198.133 128.400,196.000 128.400 C 193.867 128.400,192.400 128.237,192.400 128.000 C 192.400 127.780,191.680 127.600,190.800 127.600 C 189.920 127.600,189.200 127.780,189.200 128.000 C 189.200 128.229,188.000 128.400,186.400 128.400 C 184.800 128.400,183.600 128.229,183.600 128.000 C 183.600 127.780,182.700 127.600,181.600 127.600 C 180.055 127.600,179.600 127.742,179.600 128.224 M286.643 129.433 C 286.493 129.823,286.582 130.006,286.875 129.908 C 287.473 129.709,287.802 128.800,287.276 128.800 C 287.061 128.800,286.776 129.085,286.643 129.433 M165.429 169.771 C 165.743 170.086,166.000 170.705,166.000 171.148 C 166.000 171.591,166.180 172.064,166.400 172.200 C 166.620 172.336,166.800 172.818,166.800 173.270 C 166.800 173.896,166.991 174.043,167.600 173.884 C 168.120 173.748,168.400 173.872,168.400 174.237 C 168.400 175.228,168.328 175.402,167.960 175.300 C 167.762 175.245,167.600 175.470,167.600 175.800 C 167.600 176.130,167.780 176.400,168.000 176.400 C 168.220 176.400,168.400 176.683,168.400 177.029 C 168.400 177.374,168.680 177.937,169.023 178.280 C 169.366 178.623,169.542 179.175,169.414 179.508 C 169.279 179.859,169.520 180.349,169.991 180.679 C 170.868 181.293,171.117 182.201,170.300 181.805 C 170.025 181.672,170.205 181.863,170.700 182.230 C 171.564 182.871,172.022 184.308,171.200 183.800 C 170.980 183.664,170.800 183.724,170.800 183.934 C 170.800 184.143,171.048 184.409,171.351 184.526 C 171.700 184.660,171.829 185.113,171.704 185.768 C 171.542 186.614,171.659 186.800,172.353 186.800 C 173.281 186.800,173.494 187.396,172.700 187.767 C 172.300 187.953,172.300 188.047,172.700 188.233 C 172.975 188.362,173.200 189.013,173.200 189.680 C 173.200 190.696,173.330 190.859,174.000 190.684 C 174.962 190.433,175.514 191.105,174.625 191.446 C 173.831 191.751,173.814 192.754,174.598 193.054 C 174.926 193.181,175.096 193.445,174.974 193.642 C 174.852 193.839,174.943 194.000,175.176 194.000 C 175.409 194.000,175.600 194.450,175.600 195.000 C 175.600 195.550,175.825 196.014,176.100 196.032 C 176.500 196.057,176.500 196.104,176.100 196.265 C 175.287 196.593,175.531 197.276,176.366 197.011 C 177.292 196.717,177.914 197.505,177.025 197.846 C 176.111 198.196,176.257 198.606,177.496 199.171 C 178.566 199.659,178.573 199.684,177.798 200.251 C 177.275 200.633,177.154 200.929,177.444 201.116 C 178.022 201.489,178.560 204.400,178.051 204.400 C 177.840 204.400,177.575 204.175,177.464 203.900 C 177.311 203.524,177.155 203.548,176.830 204.000 C 176.546 204.397,176.299 204.458,176.100 204.179 C 175.668 203.573,155.688 203.462,154.525 204.059 C 153.414 204.629,152.125 203.638,152.926 202.829 C 153.292 202.459,153.239 202.259,152.692 201.951 C 151.787 201.440,152.220 200.689,153.234 201.011 C 153.875 201.214,154.000 201.054,154.000 200.027 C 154.000 199.352,154.180 198.800,154.400 198.800 C 154.620 198.800,154.800 198.440,154.800 198.000 C 154.800 197.560,154.980 197.200,155.200 197.200 C 155.420 197.200,155.600 196.660,155.600 196.000 C 155.600 195.340,155.780 194.800,156.000 194.800 C 156.220 194.800,156.400 194.530,156.400 194.200 C 156.400 193.870,156.192 193.600,155.939 193.600 C 155.685 193.600,155.887 193.245,156.388 192.810 C 156.999 192.281,157.227 191.746,157.080 191.186 C 156.946 190.671,157.080 190.267,157.431 190.133 C 157.744 190.013,158.000 189.574,158.000 189.157 C 158.000 188.741,158.180 188.400,158.400 188.400 C 158.987 188.400,158.889 187.205,158.300 187.175 C 158.025 187.161,158.205 186.987,158.700 186.788 C 159.301 186.546,159.600 186.089,159.600 185.413 C 159.600 184.856,159.780 184.400,160.000 184.400 C 160.220 184.400,160.400 183.860,160.400 183.200 C 160.400 182.540,160.599 182.000,160.843 182.000 C 161.086 182.000,161.179 181.723,161.050 181.385 C 160.915 181.035,161.069 180.672,161.407 180.542 C 162.127 180.266,162.198 179.213,161.500 179.168 C 161.100 179.143,161.100 179.096,161.500 178.935 C 161.775 178.824,162.000 178.468,162.000 178.143 C 162.000 177.777,162.190 177.667,162.500 177.853 C 162.821 178.046,162.798 177.905,162.434 177.457 C 161.932 176.838,161.966 176.734,162.734 176.533 C 163.601 176.306,163.953 175.600,163.200 175.600 C 162.980 175.600,162.800 175.240,162.800 174.800 C 162.800 174.267,163.067 174.000,163.600 174.000 C 164.573 174.000,164.622 173.650,163.739 173.005 C 162.984 172.453,163.384 171.431,164.228 171.755 C 165.084 172.084,165.360 171.205,164.579 170.634 C 164.193 170.352,164.006 169.914,164.162 169.661 C 164.533 169.062,164.737 169.080,165.429 169.771 M237.029 187.829 C 236.662 188.195,236.236 188.369,236.082 188.215 C 235.927 188.061,236.148 187.681,236.571 187.371 C 237.569 186.642,237.892 186.965,237.029 187.829 M212.944 206.170 C 213.856 207.562,212.861 207.776,211.700 206.437 C 211.206 205.867,210.801 205.636,210.800 205.924 C 210.800 206.212,210.620 206.336,210.400 206.200 C 209.623 205.720,210.015 205.200,211.154 205.200 C 211.934 205.200,212.514 205.514,212.944 206.170 M216.460 212.380 C 216.548 212.644,216.750 212.847,216.910 212.830 C 217.388 212.781,217.296 212.232,216.780 212.060 C 216.516 211.972,216.372 212.116,216.460 212.380 M269.200 244.111 C 269.200 244.368,268.920 244.178,268.577 243.689 C 268.235 243.200,267.695 242.800,267.377 242.800 C 266.757 242.800,266.616 242.318,267.096 241.838 C 267.434 241.499,269.200 243.407,269.200 244.111 M252.536 244.317 C 249.561 244.438,245.200 247.439,245.200 249.365 C 245.200 249.714,245.020 250.000,244.800 250.000 C 244.563 250.000,244.400 251.467,244.400 253.600 C 244.400 255.733,244.563 257.200,244.800 257.200 C 245.020 257.200,245.200 257.560,245.200 258.000 C 245.200 258.440,245.380 258.800,245.600 258.800 C 245.820 258.800,246.000 259.076,246.000 259.413 C 246.000 259.751,246.624 260.651,247.387 261.413 C 248.149 262.176,249.049 262.800,249.387 262.800 C 249.724 262.800,250.000 262.959,250.000 263.153 C 250.000 263.347,251.530 263.532,253.400 263.563 C 255.919 263.606,256.802 263.489,256.806 263.111 C 256.810 262.751,256.938 262.777,257.237 263.200 C 257.556 263.652,257.711 263.676,257.864 263.300 C 257.975 263.025,258.372 262.800,258.745 262.800 C 259.118 262.800,259.683 262.440,260.000 262.000 C 260.317 261.560,260.897 261.200,261.288 261.200 C 261.680 261.200,262.000 260.922,262.000 260.583 C 262.000 260.244,262.333 259.609,262.739 259.173 C 263.146 258.736,263.495 257.819,263.514 257.135 C 263.534 256.450,263.741 255.699,263.975 255.465 C 264.710 254.730,264.477 252.193,263.601 251.401 C 262.948 250.810,262.893 250.569,263.301 250.074 C 263.700 249.592,263.699 249.436,263.300 249.302 C 263.025 249.209,262.800 248.872,262.800 248.553 C 262.800 247.800,260.200 245.200,259.447 245.200 C 259.128 245.200,258.807 245.047,258.733 244.860 C 258.553 244.399,256.000 244.176,252.536 244.317 M157.200 272.000 C 157.200 272.220,156.840 272.400,156.400 272.400 C 155.960 272.400,155.600 272.580,155.600 272.800 C 155.600 273.020,155.240 273.200,154.800 273.200 C 154.267 273.200,154.000 273.467,154.000 274.000 C 154.000 274.440,153.832 274.800,153.627 274.800 C 153.421 274.800,153.269 275.334,153.287 275.986 C 153.306 276.639,153.474 277.078,153.660 276.963 C 153.847 276.847,154.000 276.933,154.000 277.153 C 154.000 277.373,153.820 277.664,153.600 277.800 C 152.924 278.218,153.156 278.800,154.000 278.800 C 154.725 278.800,154.994 279.227,154.837 280.130 C 154.806 280.311,154.950 280.354,155.158 280.226 C 155.366 280.098,155.807 280.264,156.139 280.596 C 156.471 280.928,157.206 281.200,157.771 281.200 C 158.533 281.200,158.800 281.407,158.800 282.000 C 158.800 282.440,158.620 282.800,158.400 282.800 C 158.180 282.800,157.999 282.665,157.997 282.500 C 157.986 281.471,154.648 280.895,153.771 281.771 C 153.116 282.427,153.006 283.600,153.600 283.600 C 153.820 283.600,154.000 283.883,154.000 284.229 C 154.000 285.037,154.963 286.000,155.771 286.000 C 156.117 286.000,156.400 286.179,156.400 286.397 C 156.400 286.616,157.120 286.766,158.000 286.732 C 158.880 286.697,159.600 286.518,159.600 286.334 C 159.600 286.150,160.140 286.000,160.800 286.000 C 161.460 286.000,162.000 285.841,162.000 285.647 C 162.000 285.452,162.360 285.199,162.800 285.084 C 163.240 284.969,163.600 284.588,163.600 284.237 C 163.600 283.887,163.787 283.600,164.016 283.600 C 164.250 283.600,164.392 282.908,164.339 282.024 C 164.288 281.157,164.101 280.538,163.923 280.647 C 163.745 280.757,163.600 280.464,163.600 279.995 C 163.600 278.808,162.532 277.792,161.866 278.345 C 161.490 278.657,161.205 278.562,160.789 277.985 C 160.182 277.142,159.135 276.907,159.300 277.650 C 159.355 277.897,159.191 278.177,158.936 278.271 C 158.414 278.464,157.759 276.096,158.217 275.671 C 158.378 275.522,158.590 275.625,158.688 275.900 C 158.786 276.175,159.212 276.400,159.633 276.400 C 160.055 276.400,160.400 276.580,160.400 276.800 C 160.400 277.510,161.611 277.225,162.527 276.300 C 163.577 275.239,163.945 272.982,163.010 273.341 C 162.685 273.465,162.252 273.264,162.043 272.892 C 161.692 272.264,161.609 272.268,160.858 272.948 C 160.414 273.349,159.859 273.560,159.625 273.416 C 159.000 273.029,159.108 272.400,159.800 272.400 C 160.130 272.400,160.400 272.220,160.400 272.000 C 160.400 271.780,159.680 271.600,158.800 271.600 C 157.920 271.600,157.200 271.780,157.200 272.000 M126.000 273.200 C 126.000 273.640,125.820 274.000,125.600 274.000 C 125.380 274.000,125.200 274.360,125.200 274.800 C 125.200 275.240,125.020 275.600,124.800 275.600 C 124.580 275.600,124.400 275.960,124.400 276.400 C 124.400 276.840,124.220 277.200,124.000 277.200 C 123.780 277.200,123.600 277.740,123.600 278.400 C 123.600 279.060,123.420 279.600,123.200 279.600 C 122.980 279.600,122.800 279.960,122.800 280.400 C 122.800 280.840,122.620 281.200,122.400 281.200 C 122.180 281.200,122.000 281.740,122.000 282.400 C 122.000 283.060,121.820 283.600,121.600 283.600 C 121.380 283.600,121.200 284.140,121.200 284.800 C 121.200 285.969,121.250 286.000,123.151 286.000 C 125.351 286.000,126.005 285.485,125.830 283.890 C 125.764 283.290,125.865 282.800,126.055 282.800 C 126.245 282.800,126.400 282.980,126.400 283.200 C 126.400 283.420,127.390 283.600,128.600 283.600 C 130.333 283.600,130.800 283.733,130.800 284.229 C 130.800 285.310,131.736 285.860,133.703 285.935 C 135.159 285.990,135.600 285.866,135.600 285.403 C 135.600 285.071,135.420 284.800,135.200 284.800 C 134.980 284.800,134.800 284.519,134.800 284.176 C 134.800 283.794,134.993 283.662,135.300 283.835 C 135.700 284.061,135.700 284.010,135.300 283.579 C 135.025 283.282,134.800 282.708,134.800 282.303 C 134.800 281.898,134.440 281.180,134.000 280.708 C 133.534 280.208,133.200 279.296,133.200 278.525 C 133.200 277.328,132.887 276.997,131.900 277.153 C 131.735 277.179,131.600 276.919,131.600 276.576 C 131.600 276.233,131.780 276.064,132.000 276.200 C 132.220 276.336,132.400 276.276,132.400 276.066 C 132.400 275.857,132.133 275.583,131.807 275.458 C 131.469 275.328,131.315 274.965,131.450 274.615 C 131.579 274.277,131.486 274.000,131.243 274.000 C 130.999 274.000,130.800 273.640,130.800 273.200 C 130.800 272.489,130.533 272.400,128.400 272.400 C 126.267 272.400,126.000 272.489,126.000 273.200 M138.000 279.200 C 138.000 285.739,138.427 287.752,139.335 285.500 C 139.496 285.100,139.543 285.100,139.568 285.500 C 139.588 285.811,140.204 286.000,141.200 286.000 L 142.800 286.000 142.800 284.176 C 142.800 282.900,142.661 282.438,142.338 282.638 C 142.052 282.815,141.985 282.748,142.162 282.462 C 142.582 281.782,143.600 281.900,143.600 282.629 C 143.600 283.437,144.563 284.400,145.371 284.400 C 145.733 284.400,146.000 284.739,146.000 285.200 C 146.000 285.892,146.267 286.000,147.976 286.000 C 150.043 286.000,150.767 285.524,150.038 284.646 C 149.801 284.360,149.740 283.979,149.903 283.799 C 150.067 283.619,150.011 283.579,149.781 283.709 C 149.550 283.840,149.100 283.782,148.781 283.580 C 148.382 283.328,148.357 283.210,148.700 283.206 C 149.470 283.197,149.292 282.243,148.400 281.600 C 147.574 281.004,147.293 279.600,148.000 279.600 C 148.220 279.600,148.400 279.240,148.400 278.800 C 148.400 278.360,148.580 278.000,148.800 278.000 C 149.020 278.000,149.200 277.550,149.200 277.000 C 149.200 276.450,149.020 276.000,148.800 276.000 C 148.580 276.000,148.400 275.809,148.400 275.576 C 148.400 275.343,148.580 275.264,148.800 275.400 C 149.020 275.536,149.200 275.457,149.200 275.224 C 149.200 274.991,149.020 274.800,148.800 274.800 C 148.580 274.800,148.400 274.440,148.400 274.000 C 148.400 273.467,148.133 273.200,147.600 273.200 C 147.160 273.200,146.800 273.020,146.800 272.800 C 146.800 272.580,146.170 272.400,145.400 272.400 C 144.422 272.400,144.000 272.581,144.000 273.000 C 144.000 273.330,143.820 273.600,143.600 273.600 C 143.380 273.600,143.200 273.330,143.200 273.000 C 143.200 272.234,139.771 272.143,139.465 272.900 C 139.304 273.300,139.257 273.300,139.232 272.900 C 139.214 272.625,138.930 272.400,138.600 272.400 C 138.090 272.400,138.000 273.422,138.000 279.200 M166.800 279.200 L 166.800 286.000 171.600 286.000 C 176.184 286.000,177.888 285.471,175.900 284.664 C 175.510 284.506,175.519 284.377,175.939 284.083 C 177.351 283.092,176.265 282.203,173.496 282.082 L 170.800 281.963 170.800 280.215 C 170.800 279.191,170.593 278.383,170.300 278.264 C 169.919 278.109,169.936 277.966,170.374 277.661 C 170.834 277.340,170.850 277.143,170.455 276.666 C 170.120 276.263,170.096 275.988,170.381 275.812 C 170.611 275.669,170.800 274.843,170.800 273.976 L 170.800 272.400 168.800 272.400 L 166.800 272.400 166.800 279.200 M182.800 273.200 C 182.800 273.640,182.620 274.000,182.400 274.000 C 182.180 274.000,182.000 274.360,182.000 274.800 C 182.000 275.240,181.820 275.600,181.600 275.600 C 181.380 275.600,181.200 275.960,181.200 276.400 C 181.200 276.840,181.020 277.200,180.800 277.200 C 180.580 277.200,180.400 277.740,180.400 278.400 C 180.400 279.060,180.220 279.600,180.000 279.600 C 179.780 279.600,179.600 279.960,179.600 280.400 C 179.600 280.840,179.405 281.200,179.167 281.200 C 178.928 281.200,178.815 281.425,178.914 281.700 C 179.014 281.975,178.821 282.515,178.486 282.900 C 178.099 283.344,178.045 283.600,178.338 283.600 C 178.944 283.600,178.937 284.688,178.329 284.890 C 178.070 284.977,177.991 285.262,178.153 285.524 C 178.564 286.189,181.537 286.120,182.229 285.429 C 182.972 284.685,182.958 284.000,182.200 284.000 C 181.870 284.000,181.600 283.799,181.600 283.553 C 181.600 283.285,181.960 283.203,182.500 283.348 C 182.995 283.481,184.570 283.606,186.000 283.626 C 187.430 283.646,188.375 283.754,188.100 283.865 C 186.557 284.488,188.298 286.000,190.559 286.000 L 192.376 286.000 192.322 284.583 C 192.293 283.804,192.119 283.073,191.935 282.960 C 191.751 282.846,191.600 282.403,191.600 281.976 C 191.600 281.549,191.420 281.200,191.200 281.200 C 190.980 281.200,190.800 280.840,190.800 280.400 C 190.800 279.960,190.620 279.600,190.400 279.600 C 190.180 279.600,190.000 279.060,190.000 278.400 C 190.000 277.740,189.820 277.200,189.600 277.200 C 189.380 277.200,189.200 276.840,189.200 276.400 C 189.200 275.960,189.020 275.600,188.800 275.600 C 188.580 275.600,188.400 275.240,188.400 274.800 C 188.400 274.360,188.220 274.000,188.000 274.000 C 187.780 274.000,187.600 273.640,187.600 273.200 C 187.600 272.489,187.333 272.400,185.200 272.400 C 183.067 272.400,182.800 272.489,182.800 273.200 M194.800 274.600 C 194.800 275.810,194.980 276.800,195.200 276.800 C 195.420 276.800,195.600 277.081,195.600 277.424 C 195.600 277.767,195.433 277.944,195.229 277.818 C 195.011 277.683,194.848 279.320,194.833 281.794 L 194.807 286.000 197.204 286.000 L 199.600 286.000 199.600 283.200 C 199.600 281.600,199.771 280.400,200.000 280.400 C 200.220 280.400,200.400 280.720,200.400 281.112 C 200.400 281.503,200.760 282.083,201.200 282.400 C 201.640 282.717,202.000 283.215,202.000 283.506 C 202.000 284.861,203.910 286.000,206.182 286.000 L 208.400 286.000 208.400 279.260 L 208.400 272.520 205.956 272.446 L 203.511 272.373 203.661 275.338 C 203.776 277.608,203.692 278.257,203.305 278.108 C 203.027 278.002,202.800 277.646,202.800 277.318 C 202.800 276.989,202.260 276.217,201.600 275.600 C 200.940 274.983,200.400 274.268,200.400 274.011 C 200.400 272.965,199.218 272.400,197.029 272.400 L 194.800 272.400 194.800 274.600 M218.000 279.200 L 218.000 286.000 220.000 286.000 L 222.000 286.000 222.000 284.000 C 222.000 282.900,222.102 282.000,222.226 282.000 C 222.350 282.000,223.329 282.900,224.400 284.000 C 226.740 286.403,230.800 287.077,230.800 285.064 C 230.800 283.891,227.578 280.400,226.495 280.400 C 225.248 280.400,225.866 278.466,227.664 276.738 C 228.509 275.927,229.200 274.979,229.200 274.631 C 229.200 274.267,229.538 274.000,230.000 274.000 C 230.533 274.000,230.800 273.733,230.800 273.200 C 230.800 272.760,230.626 272.400,230.413 272.400 C 230.199 272.400,230.124 272.715,230.245 273.100 C 230.455 273.767,230.438 273.767,229.889 273.100 C 228.735 271.700,225.776 272.152,224.000 274.000 C 223.154 274.880,222.359 275.600,222.231 275.600 C 222.104 275.600,222.000 274.880,222.000 274.000 L 222.000 272.400 220.000 272.400 L 218.000 272.400 218.000 279.200 M233.240 274.900 C 233.270 276.758,233.362 277.143,233.600 276.400 C 233.815 275.729,233.915 276.453,233.903 278.600 C 233.890 281.146,233.828 281.473,233.600 280.200 C 233.366 278.895,233.304 279.190,233.263 281.800 C 233.228 283.996,233.334 284.812,233.600 284.400 C 233.902 283.932,233.989 284.043,233.994 284.900 C 234.000 285.916,234.123 286.000,235.600 286.000 L 237.200 286.000 237.200 283.600 L 237.200 281.200 239.551 281.200 C 241.828 281.200,243.642 282.050,242.317 282.496 C 241.895 282.638,241.896 282.786,242.319 283.299 C 242.668 283.722,242.701 284.014,242.419 284.188 C 241.132 284.984,242.018 286.000,244.000 286.000 L 246.000 286.000 246.000 279.200 L 246.000 272.400 244.000 272.400 L 242.000 272.400 242.000 274.800 L 242.000 277.200 239.600 277.200 L 237.200 277.200 237.200 274.800 L 237.200 272.400 235.200 272.400 L 233.200 272.400 233.240 274.900 M253.200 273.200 C 253.200 273.640,253.020 274.000,252.800 274.000 C 252.580 274.000,252.400 274.540,252.400 275.200 C 252.400 275.860,252.220 276.400,252.000 276.400 C 251.780 276.400,251.600 276.760,251.600 277.200 C 251.600 277.640,251.401 278.000,251.157 278.000 C 250.914 278.000,250.821 278.277,250.950 278.615 C 251.085 278.965,250.931 279.328,250.593 279.458 C 250.258 279.587,250.000 280.189,250.000 280.843 C 250.000 281.479,249.820 282.000,249.600 282.000 C 249.380 282.000,249.200 282.360,249.200 282.800 C 249.200 283.240,249.020 283.600,248.800 283.600 C 248.580 283.600,248.400 284.140,248.400 284.800 C 248.400 285.958,248.463 286.000,250.229 286.000 C 252.116 286.000,253.200 285.354,253.200 284.229 C 253.200 283.797,253.576 283.600,254.400 283.600 C 255.068 283.600,255.556 283.405,255.500 283.159 C 255.317 282.350,257.633 282.399,258.517 283.223 C 259.232 283.890,259.255 284.000,258.675 284.000 C 257.850 284.000,257.802 284.659,258.571 285.429 C 259.536 286.393,263.600 286.208,263.600 285.200 C 263.600 284.760,263.347 284.400,263.037 284.400 C 262.672 284.400,262.548 284.120,262.684 283.600 C 262.801 283.153,262.696 282.800,262.447 282.800 C 262.201 282.800,262.000 282.440,262.000 282.000 C 262.000 281.560,261.820 281.200,261.600 281.200 C 261.380 281.200,261.200 280.660,261.200 280.000 C 261.200 279.340,261.020 278.800,260.800 278.800 C 260.580 278.800,260.400 278.440,260.400 278.000 C 260.400 277.560,260.220 277.200,260.000 277.200 C 259.780 277.200,259.600 276.660,259.600 276.000 C 259.600 275.164,259.405 274.800,258.957 274.800 C 258.537 274.800,258.398 274.582,258.556 274.170 C 258.980 273.065,257.805 272.400,255.429 272.400 C 253.467 272.400,253.200 272.496,253.200 273.200 M266.000 279.233 L 266.000 286.000 267.988 286.000 L 269.976 286.000 269.907 284.700 C 269.780 282.294,269.997 280.400,270.400 280.400 C 270.620 280.400,270.800 280.760,270.800 281.200 C 270.800 281.640,270.980 282.000,271.200 282.000 C 271.420 282.000,271.600 281.719,271.600 281.376 C 271.600 281.029,271.793 280.872,272.035 281.022 C 272.348 281.215,272.348 281.412,272.035 281.725 C 271.400 282.360,271.498 282.680,272.400 282.916 C 272.889 283.044,273.200 283.462,273.200 283.991 C 273.200 285.434,274.150 286.000,276.571 286.000 C 278.970 286.000,279.385 285.441,278.382 283.565 C 278.151 283.135,278.099 282.563,278.265 282.294 C 278.799 281.431,278.816 274.657,278.286 274.329 C 277.916 274.101,277.920 273.920,278.303 273.537 C 279.186 272.654,278.840 272.400,276.753 272.400 C 274.903 272.400,274.727 272.477,274.916 273.201 C 275.049 273.710,274.969 273.904,274.695 273.735 C 274.424 273.568,274.357 273.711,274.515 274.122 C 274.652 274.481,274.593 274.881,274.383 275.011 C 274.172 275.141,274.000 275.687,274.000 276.224 C 274.000 276.761,273.902 277.200,273.782 277.200 C 273.380 277.200,271.600 275.242,271.600 274.800 C 271.600 273.656,269.690 272.467,267.852 272.467 L 266.000 272.467 266.000 279.233 M144.400 276.567 C 144.400 277.104,143.858 278.000,143.534 278.000 C 143.324 278.000,143.264 277.820,143.400 277.600 C 143.536 277.380,143.457 277.200,143.224 277.200 C 142.991 277.200,142.800 277.020,142.800 276.800 C 142.800 276.580,143.160 276.400,143.600 276.400 C 144.040 276.400,144.400 276.475,144.400 276.567 M256.400 279.600 C 256.400 280.058,256.133 280.400,255.776 280.400 C 255.433 280.400,255.264 280.220,255.400 280.000 C 255.536 279.780,255.412 279.597,255.124 279.594 C 254.743 279.589,254.764 279.482,255.200 279.200 C 256.102 278.617,256.400 278.716,256.400 279.600 M230.000 284.200 C 230.000 284.530,229.730 284.800,229.400 284.800 C 228.775 284.800,228.606 284.327,229.067 283.867 C 229.527 283.406,230.000 283.575,230.000 284.200 M165.680 291.280 C 165.007 291.953,165.083 292.669,165.858 292.967 C 166.676 293.281,168.023 292.126,167.730 291.362 C 167.466 290.674,166.332 290.628,165.680 291.280 M176.254 291.404 C 176.117 291.760,175.823 291.938,175.600 291.800 C 175.377 291.662,174.896 291.847,174.532 292.211 C 173.972 292.770,173.957 292.928,174.435 293.230 C 174.834 293.483,174.853 293.590,174.500 293.594 C 174.195 293.598,174.000 294.154,174.000 295.023 L 174.000 296.445 175.200 295.736 C 176.452 294.997,176.896 293.835,175.760 294.271 C 175.200 294.485,175.187 294.409,175.657 293.658 C 176.303 292.622,177.188 292.533,177.232 293.500 C 177.249 293.885,177.351 293.985,177.457 293.722 C 177.769 292.957,178.800 293.602,178.800 294.563 C 178.800 295.045,179.016 295.656,179.280 295.920 C 179.775 296.415,179.335 296.596,178.060 296.421 C 177.763 296.380,177.626 296.518,177.755 296.728 C 178.041 297.189,176.434 297.668,175.838 297.300 C 175.126 296.860,173.967 296.905,174.139 297.366 C 174.227 297.605,174.496 297.757,174.736 297.705 C 174.975 297.652,175.068 297.877,174.943 298.205 C 174.754 298.697,175.205 298.800,177.557 298.800 C 179.291 298.800,180.400 298.635,180.400 298.376 C 180.400 298.143,180.192 298.081,179.938 298.238 C 179.659 298.411,179.585 298.348,179.751 298.079 C 179.902 297.835,180.290 297.736,180.613 297.860 C 181.090 298.043,181.200 297.626,181.200 295.643 C 181.200 294.281,181.023 293.200,180.800 293.200 C 180.580 293.200,180.400 292.840,180.400 292.400 C 180.400 291.960,180.220 291.600,180.000 291.600 C 179.780 291.600,179.645 291.814,179.700 292.076 C 179.755 292.338,179.471 292.624,179.069 292.712 C 178.499 292.836,178.367 292.665,178.469 291.935 C 178.631 290.779,176.674 290.309,176.254 291.404 M163.600 292.400 C 163.600 292.840,163.420 293.200,163.200 293.200 C 162.980 293.200,162.800 293.939,162.800 294.843 C 162.800 296.102,162.933 296.434,163.371 296.266 C 163.821 296.094,163.895 296.338,163.719 297.424 C 163.426 299.227,164.194 299.237,164.787 297.438 C 165.280 295.947,165.233 292.868,164.714 292.547 C 164.534 292.436,164.491 292.177,164.617 291.972 C 164.744 291.768,164.567 291.600,164.224 291.600 C 163.867 291.600,163.600 291.942,163.600 292.400 M186.000 295.200 C 186.000 297.467,186.157 298.800,186.424 298.800 C 186.657 298.800,186.744 298.632,186.617 298.428 C 186.491 298.223,186.582 297.935,186.821 297.787 C 187.059 297.640,187.172 297.303,187.070 297.039 C 186.969 296.776,187.115 296.133,187.394 295.611 L 187.902 294.662 188.191 295.573 C 188.434 296.337,188.675 296.445,189.682 296.244 C 190.604 296.059,190.835 296.132,190.672 296.556 C 190.307 297.509,191.544 298.800,192.823 298.800 C 193.932 298.800,194.000 298.707,194.000 297.176 C 194.000 296.196,193.842 295.651,193.600 295.800 C 193.380 295.936,193.200 295.767,193.200 295.424 C 193.200 295.081,193.380 294.800,193.600 294.800 C 193.820 294.800,194.000 294.080,194.000 293.200 L 194.000 291.600 192.400 291.600 C 191.067 291.600,190.800 291.733,190.800 292.400 C 190.800 292.900,190.533 293.200,190.088 293.200 C 189.697 293.200,189.117 292.840,188.800 292.400 C 188.461 291.930,187.765 291.600,187.112 291.600 L 186.000 291.600 186.000 295.200 M198.000 293.800 C 198.000 295.925,198.037 296.001,199.100 296.032 C 199.705 296.050,200.740 296.105,201.400 296.154 C 202.784 296.256,203.600 295.616,203.600 294.429 C 203.600 293.773,203.347 293.600,202.392 293.600 C 201.304 293.600,201.210 293.501,201.436 292.600 C 201.676 291.642,201.610 291.600,199.843 291.600 L 198.000 291.600 198.000 293.800 M210.000 292.400 C 210.000 292.840,209.799 293.200,209.553 293.200 C 209.302 293.200,209.199 293.553,209.318 294.007 C 209.434 294.451,209.263 295.080,208.939 295.404 C 207.905 296.437,208.395 298.576,209.700 298.727 C 210.806 298.854,211.233 298.241,210.300 297.865 C 209.900 297.704,209.900 297.657,210.300 297.632 C 210.601 297.613,210.800 297.031,210.800 296.173 C 210.800 294.800,212.255 294.409,212.733 295.653 C 212.971 296.272,214.800 296.042,214.800 295.392 C 214.800 294.944,214.538 294.851,213.800 295.036 C 213.184 295.190,212.800 295.117,212.800 294.843 C 212.800 294.600,213.070 294.400,213.400 294.400 C 213.730 294.400,214.000 294.130,214.000 293.800 C 214.000 293.470,213.820 293.200,213.600 293.200 C 213.380 293.200,213.200 292.840,213.200 292.400 C 213.200 291.733,212.933 291.600,211.600 291.600 C 210.267 291.600,210.000 291.733,210.000 292.400 M219.600 293.200 C 219.600 294.080,219.735 294.781,219.900 294.757 C 220.653 294.648,222.000 295.348,222.000 295.847 C 222.000 296.151,222.180 296.400,222.400 296.400 C 222.620 296.400,222.800 296.683,222.800 297.029 C 222.800 298.059,223.853 298.800,225.318 298.800 L 226.693 298.800 226.693 296.800 C 226.693 295.700,226.527 294.800,226.323 294.800 C 226.119 294.800,226.055 294.635,226.179 294.434 C 226.304 294.232,226.223 293.557,226.001 292.934 C 225.631 291.900,225.646 291.866,226.176 292.547 C 226.742 293.275,226.756 293.274,226.700 292.526 C 226.590 291.074,224.400 291.328,224.400 292.794 C 224.400 293.457,224.297 294.000,224.171 294.000 C 223.800 294.000,222.976 293.054,222.690 292.300 C 222.075 290.675,219.600 291.396,219.600 293.200 M230.800 292.400 C 230.800 292.954,231.077 293.210,231.700 293.232 C 232.195 293.249,232.375 293.354,232.100 293.465 C 231.358 293.764,231.493 294.547,232.400 295.200 C 232.957 295.602,233.200 296.235,233.200 297.288 C 233.200 298.701,233.278 298.800,234.400 298.800 C 235.656 298.800,236.031 298.140,235.000 297.745 C 234.189 297.434,234.242 296.532,235.100 296.032 C 235.485 295.808,235.620 295.619,235.400 295.612 C 235.180 295.605,235.495 295.173,236.100 294.653 C 237.374 293.558,237.500 291.793,236.311 291.703 C 235.910 291.673,235.687 291.818,235.815 292.024 C 235.943 292.231,235.587 292.400,235.024 292.400 C 234.461 292.400,234.000 292.220,234.000 292.000 C 234.000 291.780,233.280 291.600,232.400 291.600 C 231.067 291.600,230.800 291.733,230.800 292.400 M200.310 293.269 C 200.225 293.526,199.763 293.766,199.284 293.801 C 198.602 293.851,198.509 293.750,198.856 293.333 C 199.401 292.676,200.525 292.626,200.310 293.269 M190.400 294.733 C 190.400 295.137,190.289 295.578,190.152 295.714 C 189.781 296.086,188.710 294.869,188.998 294.403 C 189.418 293.724,190.400 293.956,190.400 294.733 M201.322 294.540 C 201.465 294.914,201.170 295.090,200.364 295.113 C 198.994 295.152,198.797 294.533,200.100 294.282 C 200.595 294.187,201.026 294.084,201.057 294.054 C 201.089 294.025,201.208 294.243,201.322 294.540 M165.754 297.517 C 165.436 298.360,165.459 298.753,165.849 299.117 C 166.475 299.702,167.600 299.755,167.600 299.200 C 167.600 298.980,167.960 298.800,168.400 298.800 C 169.022 298.800,169.200 298.533,169.200 297.600 C 169.200 295.841,166.412 295.773,165.754 297.517 M213.100 296.832 C 212.258 297.323,212.158 298.178,212.980 297.863 C 213.367 297.715,213.485 297.833,213.337 298.220 C 213.197 298.584,213.363 298.800,213.781 298.800 C 214.147 298.800,214.344 298.632,214.217 298.428 C 214.091 298.223,214.170 297.942,214.393 297.804 C 215.701 296.996,214.443 296.050,213.100 296.832 M198.000 298.013 C 198.000 298.446,198.270 298.800,198.600 298.800 C 198.930 298.800,199.200 298.549,199.200 298.243 C 199.200 297.936,198.930 297.582,198.600 297.455 C 198.192 297.299,198.000 297.477,198.000 298.013 " stroke="none" fill="#fcfcfc" fill-rule="evenodd"></path><path id="path1" d="M183.600 128.000 C 183.600 128.229,184.800 128.400,186.400 128.400 C 188.000 128.400,189.200 128.229,189.200 128.000 C 189.200 127.771,188.000 127.600,186.400 127.600 C 184.800 127.600,183.600 127.771,183.600 128.000 M192.400 128.000 C 192.400 128.237,193.867 128.400,196.000 128.400 C 198.133 128.400,199.600 128.237,199.600 128.000 C 199.600 127.763,198.133 127.600,196.000 127.600 C 193.867 127.600,192.400 127.763,192.400 128.000 M254.000 128.000 C 254.000 128.229,255.200 128.400,256.800 128.400 C 258.400 128.400,259.600 128.229,259.600 128.000 C 259.600 127.771,258.400 127.600,256.800 127.600 C 255.200 127.600,254.000 127.771,254.000 128.000 M271.600 128.000 C 271.600 128.237,273.067 128.400,275.200 128.400 C 277.333 128.400,278.800 128.237,278.800 128.000 C 278.800 127.763,277.333 127.600,275.200 127.600 C 273.067 127.600,271.600 127.763,271.600 128.000 M282.000 128.000 C 282.000 128.220,282.259 128.400,282.576 128.400 C 282.893 128.400,283.264 128.220,283.400 128.000 C 283.536 127.780,283.277 127.600,282.824 127.600 C 282.371 127.600,282.000 127.780,282.000 128.000 M284.400 127.920 C 284.400 128.026,284.715 128.353,285.100 128.648 C 285.677 129.091,285.703 129.248,285.249 129.548 C 284.642 129.947,284.969 130.804,285.724 130.794 C 286.010 130.790,285.961 130.633,285.600 130.400 C 285.085 130.067,285.097 130.011,285.686 130.006 C 286.392 130.000,287.445 128.512,287.035 128.102 C 286.751 127.818,284.400 127.656,284.400 127.920 M248.176 131.780 C 247.427 132.340,247.432 132.352,248.306 132.132 C 248.805 132.006,249.310 131.745,249.430 131.552 C 249.768 131.004,249.036 131.138,248.176 131.780 M178.844 136.999 C 178.860 138.649,179.065 140.117,179.299 140.261 C 179.554 140.419,179.606 140.333,179.427 140.044 C 179.264 139.781,179.348 139.304,179.612 138.986 C 180.162 138.322,179.786 134.000,179.178 134.000 C 178.977 134.000,178.827 135.350,178.844 136.999 M208.893 139.200 C 208.893 139.970,208.975 140.285,209.076 139.900 C 209.176 139.515,209.176 138.885,209.076 138.500 C 208.975 138.115,208.893 138.430,208.893 139.200 M240.162 141.258 C 239.404 142.112,239.405 142.114,240.300 141.644 C 240.795 141.384,241.200 140.998,241.200 140.786 C 241.200 140.218,241.009 140.305,240.162 141.258 M208.640 152.700 C 208.490 155.505,208.396 160.348,208.431 163.462 C 208.466 166.576,208.360 169.341,208.196 169.607 C 208.031 169.873,208.145 170.249,208.449 170.445 C 208.878 170.722,208.891 170.871,208.505 171.120 C 207.919 171.500,207.975 175.200,208.567 175.200 C 208.783 175.200,208.744 175.416,208.480 175.680 C 207.922 176.238,207.819 179.359,208.370 179.019 C 208.573 178.893,208.828 179.107,208.937 179.495 C 209.045 179.883,209.095 179.712,209.049 179.115 C 209.002 178.518,208.837 177.903,208.682 177.748 C 208.288 177.355,208.328 176.000,208.733 176.000 C 208.917 176.000,209.067 175.460,209.067 174.800 C 209.067 174.140,208.917 173.600,208.733 173.600 C 208.550 173.600,208.418 173.105,208.440 172.500 L 208.480 171.400 208.800 172.400 C 208.976 172.950,209.138 167.595,209.160 160.500 C 209.203 146.624,209.071 144.643,208.640 152.700 M265.280 154.480 C 265.016 154.744,264.800 154.827,264.800 154.664 C 264.800 154.502,264.408 154.734,263.929 155.180 C 263.450 155.626,263.186 156.119,263.342 156.275 C 263.498 156.431,264.201 155.983,264.905 155.279 C 265.609 154.576,266.089 154.000,265.972 154.000 C 265.856 154.000,265.544 154.216,265.280 154.480 M228.162 155.668 C 227.442 156.488,227.441 156.521,228.133 156.268 C 228.536 156.121,229.031 156.000,229.233 156.000 C 229.435 156.000,229.600 155.730,229.600 155.400 C 229.600 154.553,229.051 154.655,228.162 155.668 M222.602 161.998 C 222.203 162.439,222.007 162.800,222.167 162.800 C 222.588 162.800,223.728 161.595,223.512 161.379 C 223.411 161.278,223.002 161.556,222.602 161.998 M164.200 169.600 C 163.908 170.072,164.287 170.800,164.824 170.800 C 165.031 170.800,165.200 170.440,165.200 170.000 C 165.200 169.156,164.618 168.924,164.200 169.600 M215.680 170.480 C 215.102 171.058,215.056 171.600,215.586 171.600 C 215.798 171.600,216.165 171.240,216.400 170.800 C 216.872 169.919,216.435 169.725,215.680 170.480 M163.400 172.000 C 163.081 172.516,163.510 173.209,164.124 173.168 C 164.451 173.147,164.438 173.072,164.083 172.930 C 163.687 172.770,163.675 172.592,164.032 172.161 C 164.340 171.790,164.354 171.600,164.073 171.600 C 163.839 171.600,163.536 171.780,163.400 172.000 M167.790 174.127 C 167.627 174.527,167.677 175.037,167.902 175.262 C 168.464 175.824,168.766 175.172,168.393 174.200 C 168.104 173.447,168.069 173.443,167.790 174.127 M246.000 176.400 C 245.683 176.596,245.556 176.889,245.718 177.052 C 245.881 177.214,246.223 177.137,246.480 176.880 C 247.084 176.276,246.747 175.938,246.000 176.400 M170.800 182.953 C 170.800 183.283,170.980 183.664,171.200 183.800 C 171.420 183.936,171.600 183.777,171.600 183.447 C 171.600 183.117,171.420 182.736,171.200 182.600 C 170.980 182.464,170.800 182.623,170.800 182.953 M236.571 187.371 C 236.148 187.681,235.927 188.061,236.082 188.215 C 236.236 188.369,236.662 188.195,237.029 187.829 C 237.892 186.965,237.569 186.642,236.571 187.371 M174.188 190.820 C 173.807 191.435,174.328 191.832,174.842 191.318 C 175.129 191.031,175.136 190.807,174.862 190.639 C 174.639 190.500,174.335 190.582,174.188 190.820 M125.500 192.631 C 125.335 192.797,125.200 193.299,125.200 193.747 C 125.200 194.335,125.321 194.439,125.638 194.122 C 125.878 193.882,126.013 193.380,125.938 193.007 C 125.862 192.633,125.665 192.464,125.500 192.631 M241.364 194.600 C 241.914 195.150,242.493 195.600,242.652 195.600 C 242.810 195.600,242.517 195.150,242.000 194.600 C 241.483 194.050,240.904 193.600,240.712 193.600 C 240.520 193.600,240.814 194.050,241.364 194.600 M176.588 197.220 C 176.207 197.835,176.728 198.232,177.242 197.718 C 177.529 197.431,177.536 197.207,177.262 197.039 C 177.039 196.900,176.735 196.982,176.588 197.220 M177.333 199.800 C 177.333 200.142,177.497 200.368,177.697 200.301 C 177.897 200.235,178.060 200.009,178.060 199.800 C 178.060 199.591,177.897 199.365,177.697 199.299 C 177.497 199.232,177.333 199.458,177.333 199.800 M245.843 199.891 C 245.404 200.329,245.589 200.800,246.200 200.800 C 246.530 200.800,246.800 200.975,246.800 201.190 C 246.800 201.404,247.385 201.865,248.100 202.214 C 249.362 202.830,249.377 202.827,248.600 202.124 C 248.160 201.726,247.414 201.006,246.943 200.524 C 246.471 200.042,245.976 199.757,245.843 199.891 M152.278 201.056 C 151.958 201.375,152.319 202.000,152.824 202.000 C 153.031 202.000,153.200 201.730,153.200 201.400 C 153.200 200.781,152.728 200.605,152.278 201.056 M153.200 204.000 C 153.200 204.220,153.459 204.400,153.776 204.400 C 154.093 204.400,154.464 204.220,154.600 204.000 C 154.736 203.780,154.477 203.600,154.024 203.600 C 153.571 203.600,153.200 203.780,153.200 204.000 M169.700 203.876 C 170.085 203.976,170.715 203.976,171.100 203.876 C 171.485 203.775,171.170 203.693,170.400 203.693 C 169.630 203.693,169.315 203.775,169.700 203.876 M210.000 205.576 C 210.000 205.783,210.180 206.064,210.400 206.200 C 210.620 206.336,210.800 206.295,210.800 206.109 C 210.800 205.923,211.160 205.771,211.600 205.771 C 212.163 205.771,212.400 206.038,212.400 206.673 C 212.400 207.300,212.578 207.506,212.985 207.350 C 214.025 206.951,212.534 205.200,211.154 205.200 C 210.519 205.200,210.000 205.369,210.000 205.576 M216.908 212.037 C 217.298 212.264,217.497 212.663,217.350 212.925 C 217.180 213.227,217.285 213.212,217.638 212.883 C 218.212 212.349,217.601 211.603,216.600 211.618 C 216.380 211.622,216.519 211.810,216.908 212.037 M117.569 212.500 C 117.316 213.327,117.344 214.042,117.636 214.222 C 117.836 214.346,118.000 213.987,118.000 213.424 C 118.000 212.609,117.720 212.008,117.569 212.500 M222.177 218.369 C 222.954 219.185,223.489 219.471,223.751 219.209 C 223.968 218.992,224.069 218.765,223.973 218.707 C 223.878 218.648,223.170 218.270,222.400 217.866 L 221.000 217.132 222.177 218.369 M231.924 229.636 C 233.278 230.914,233.807 231.005,233.377 229.885 C 233.245 229.539,232.565 229.060,231.868 228.821 L 230.600 228.386 231.924 229.636 M166.237 229.896 C 166.185 229.948,160.845 230.022,154.371 230.060 C 143.060 230.126,141.200 230.309,141.200 231.358 C 141.200 231.559,141.515 231.447,141.900 231.109 C 142.452 230.624,143.529 230.511,147.000 230.572 C 149.420 230.615,157.565 230.684,165.100 230.725 L 178.800 230.800 178.806 240.100 C 178.813 249.952,179.320 253.372,179.763 246.548 C 180.063 241.927,179.970 230.998,179.626 230.441 C 179.429 230.123,166.532 229.597,166.237 229.896 M267.096 241.838 C 266.616 242.318,266.757 242.800,267.377 242.800 C 267.695 242.800,268.235 243.200,268.577 243.689 C 268.920 244.178,269.200 244.368,269.200 244.111 C 269.200 243.407,267.434 241.499,267.096 241.838 M143.200 273.000 C 143.200 273.330,143.380 273.600,143.600 273.600 C 143.820 273.600,144.000 273.330,144.000 273.000 C 144.000 272.670,143.820 272.400,143.600 272.400 C 143.380 272.400,143.200 272.670,143.200 273.000 M159.200 272.776 C 159.200 273.523,160.090 273.681,160.724 273.047 C 161.321 272.451,161.286 272.400,160.286 272.400 C 159.689 272.400,159.200 272.569,159.200 272.776 M233.475 276.900 C 233.357 277.615,233.405 279.010,233.580 280.000 C 233.875 281.658,233.904 281.556,233.950 278.700 C 234.003 275.417,233.828 274.754,233.475 276.900 M278.493 279.200 C 278.493 279.970,278.575 280.285,278.676 279.900 C 278.776 279.515,278.776 278.885,278.676 278.500 C 278.575 278.115,278.493 278.430,278.493 279.200 M278.202 282.397 C 278.067 282.615,278.141 283.110,278.366 283.497 C 278.717 284.100,278.777 284.044,278.788 283.100 C 278.801 281.950,278.616 281.728,278.202 282.397 M255.339 282.900 C 255.130 283.237,255.108 283.226,256.200 283.379 C 256.640 283.441,257.540 283.630,258.200 283.798 L 259.400 284.104 258.558 283.291 C 257.747 282.507,255.734 282.263,255.339 282.900 M181.600 283.600 C 181.600 283.820,181.870 284.000,182.200 284.000 C 182.530 284.000,182.800 283.820,182.800 283.600 C 182.800 283.380,182.530 283.200,182.200 283.200 C 181.870 283.200,181.600 283.380,181.600 283.600 M229.067 283.867 C 228.606 284.327,228.775 284.800,229.400 284.800 C 229.730 284.800,230.000 284.530,230.000 284.200 C 230.000 283.575,229.527 283.406,229.067 283.867 M233.430 284.667 C 233.289 285.034,233.360 285.520,233.587 285.747 C 233.871 286.031,234.000 285.823,234.000 285.080 C 234.000 283.846,233.800 283.701,233.430 284.667 M164.711 291.820 C 164.552 291.980,164.549 292.311,164.705 292.556 C 164.860 292.800,164.991 293.165,164.994 293.367 C 164.997 293.568,165.225 293.808,165.500 293.900 C 165.775 293.992,166.000 293.782,166.000 293.433 C 166.000 293.085,165.833 292.800,165.629 292.800 C 165.425 292.800,165.200 292.514,165.129 292.164 C 165.058 291.814,164.870 291.659,164.711 291.820 M178.400 292.200 C 178.400 292.612,178.662 292.808,179.100 292.724 C 179.943 292.561,179.890 291.852,179.021 291.671 C 178.659 291.595,178.400 291.816,178.400 292.200 M201.600 291.967 C 201.600 292.169,201.491 292.619,201.357 292.967 C 201.169 293.456,201.374 293.594,202.257 293.572 C 203.257 293.547,203.300 293.501,202.600 293.200 C 202.160 293.011,202.025 292.844,202.300 292.828 C 203.017 292.788,202.920 291.600,202.200 291.600 C 201.870 291.600,201.600 291.765,201.600 291.967 M226.001 292.934 C 226.223 293.557,226.304 294.232,226.179 294.434 C 226.055 294.635,226.143 294.800,226.376 294.800 C 226.999 294.800,226.892 293.472,226.198 292.576 C 225.636 291.853,225.623 291.877,226.001 292.934 M175.693 293.600 C 175.156 294.459,175.342 294.541,176.600 294.000 C 177.139 293.768,177.204 293.645,176.800 293.622 C 176.267 293.592,176.267 293.545,176.800 293.200 C 177.332 292.856,177.332 292.812,176.796 292.806 C 176.464 292.803,175.968 293.160,175.693 293.600 M198.856 293.333 C 198.509 293.750,198.602 293.851,199.284 293.801 C 199.763 293.766,200.225 293.526,200.310 293.269 C 200.525 292.626,199.401 292.676,198.856 293.333 M189.003 294.395 C 188.707 294.874,190.280 296.653,190.662 296.271 C 190.811 296.122,190.748 296.000,190.522 296.000 C 190.296 296.000,190.197 295.550,190.302 295.000 C 190.497 293.980,189.536 293.532,189.003 294.395 M200.100 294.282 C 198.797 294.533,198.994 295.152,200.364 295.113 C 201.170 295.090,201.465 294.914,201.322 294.540 C 201.208 294.243,201.089 294.025,201.057 294.054 C 201.026 294.084,200.595 294.187,200.100 294.282 M212.800 294.843 C 212.800 295.117,212.416 295.190,211.800 295.036 C 210.899 294.810,210.800 294.904,210.800 295.992 C 210.800 297.395,211.505 297.549,213.654 296.616 C 214.991 296.035,214.993 296.031,213.900 296.016 C 213.295 296.007,212.800 295.820,212.800 295.600 C 212.800 295.380,213.070 295.200,213.400 295.200 C 213.730 295.200,214.000 295.020,214.000 294.800 C 214.000 294.580,213.730 294.400,213.400 294.400 C 213.070 294.400,212.800 294.600,212.800 294.843 M219.823 294.710 C 219.450 295.083,220.463 296.000,221.249 296.000 C 221.662 296.000,221.999 295.865,221.997 295.700 C 221.993 295.299,220.098 294.436,219.823 294.710 M187.274 295.797 C 186.855 296.717,186.878 296.758,187.570 296.326 C 187.983 296.068,188.229 295.619,188.117 295.329 C 187.845 294.619,187.799 294.644,187.274 295.797 M174.846 295.952 C 173.947 296.643,174.239 297.594,175.172 297.017 C 175.377 296.891,175.658 296.970,175.796 297.193 C 175.934 297.417,176.227 297.600,176.447 297.600 C 176.667 297.600,176.736 297.420,176.600 297.200 C 176.464 296.980,176.588 296.795,176.876 296.788 C 177.196 296.780,177.123 296.615,176.692 296.363 C 176.302 296.136,176.088 295.782,176.215 295.575 C 176.593 294.965,175.872 295.163,174.846 295.952 M198.000 296.613 C 198.000 296.949,198.270 297.329,198.600 297.455 C 198.930 297.582,199.200 297.947,199.200 298.266 C 199.200 298.586,199.396 298.726,199.635 298.578 C 199.948 298.385,199.948 298.188,199.635 297.875 C 199.002 297.242,199.103 296.677,199.800 296.945 C 200.165 297.085,200.400 296.945,200.400 296.587 C 200.400 296.201,199.989 296.000,199.200 296.000 C 198.389 296.000,198.000 296.199,198.000 296.613 M234.529 296.640 C 234.287 297.270,235.175 298.178,235.588 297.723 C 235.705 297.595,235.567 297.408,235.283 297.306 C 234.886 297.165,234.875 296.992,235.232 296.561 C 235.582 296.140,235.583 296.000,235.236 296.000 C 234.983 296.000,234.664 296.288,234.529 296.640 M164.951 297.033 C 164.800 297.455,164.611 297.923,164.532 298.072 C 164.452 298.222,164.561 298.452,164.773 298.584 C 165.365 298.949,166.171 297.211,165.650 296.690 C 165.352 296.392,165.145 296.493,164.951 297.033 M186.810 297.788 C 186.184 298.542,186.924 298.890,187.797 298.252 C 188.426 297.792,188.436 297.700,187.885 297.488 C 187.541 297.356,187.057 297.491,186.810 297.788 M214.453 297.736 C 214.081 298.184,214.108 298.356,214.577 298.536 C 215.301 298.813,215.842 298.082,215.308 297.548 C 215.065 297.305,214.754 297.374,214.453 297.736 M219.687 298.062 C 219.786 298.358,220.187 298.662,220.579 298.738 C 221.035 298.827,221.228 298.682,221.113 298.338 C 221.014 298.042,220.613 297.738,220.221 297.662 C 219.765 297.573,219.572 297.718,219.687 298.062 " stroke="none" fill="#f4f4f4" fill-rule="evenodd"></path><path id="path2" d="M208.400 172.600 C 208.400 173.150,208.555 173.600,208.745 173.600 C 208.934 173.600,209.003 173.150,208.898 172.600 C 208.793 172.050,208.638 171.600,208.553 171.600 C 208.469 171.600,208.400 172.050,208.400 172.600 M208.400 176.776 C 208.400 177.203,208.580 177.664,208.800 177.800 C 209.027 177.940,209.200 177.604,209.200 177.024 C 209.200 176.461,209.020 176.000,208.800 176.000 C 208.580 176.000,208.400 176.349,208.400 176.776 M208.386 179.017 C 208.035 179.439,208.004 179.764,208.285 180.045 C 208.566 180.326,208.758 180.132,208.893 179.428 C 209.122 178.229,209.073 178.189,208.386 179.017 M168.032 292.057 C 168.014 292.419,167.730 292.818,167.400 292.945 C 166.454 293.308,166.700 294.000,167.776 294.000 C 168.829 294.000,169.550 293.272,168.911 292.855 C 168.696 292.715,168.417 292.330,168.292 292.000 C 168.101 291.500,168.058 291.510,168.032 292.057 M202.522 292.601 C 202.146 293.009,202.209 293.161,202.822 293.322 C 203.308 293.449,203.600 293.323,203.600 292.986 C 203.600 292.197,203.070 292.008,202.522 292.601 M219.600 296.320 C 219.600 297.203,219.790 297.600,220.213 297.600 C 220.549 297.600,220.929 297.870,221.055 298.200 C 221.470 299.279,222.000 298.830,222.000 297.400 C 222.000 296.319,221.836 296.000,221.280 296.000 C 220.884 296.000,220.344 295.784,220.080 295.520 C 219.707 295.147,219.600 295.324,219.600 296.320 M187.400 296.400 C 187.108 296.872,187.487 297.600,188.024 297.600 C 188.231 297.600,188.400 297.240,188.400 296.800 C 188.400 295.956,187.818 295.724,187.400 296.400 M199.200 297.176 C 199.200 297.383,199.383 297.666,199.607 297.804 C 199.830 297.942,199.894 298.268,199.748 298.528 C 199.545 298.890,199.602 298.889,199.994 298.527 C 200.276 298.267,200.398 297.772,200.266 297.427 C 200.006 296.749,199.200 296.560,199.200 297.176 " stroke="none" fill="#ececec" fill-rule="evenodd"></path><path id="path3" d="M168.400 292.200 C 168.400 292.530,168.580 292.800,168.800 292.800 C 169.020 292.800,169.200 292.530,169.200 292.200 C 169.200 291.870,169.020 291.600,168.800 291.600 C 168.580 291.600,168.400 291.870,168.400 292.200 " stroke="none" fill="#dcdcdc" fill-rule="evenodd"></path><path id="path4" d="" stroke="none" fill="#100f8fc" fill-rule="evenodd"></path></g></svg>